<?xml version="1.0" standalone="no"?>
<!DOCTYPE svg PUBLIC "-//W3C//DTD SVG 20010904//EN"
 "http://www.w3.org/TR/2001/REC-SVG-20010904/DTD/svg10.dtd">
<svg version="1.0" xmlns="http://www.w3.org/2000/svg"
 width="64.000000pt" height="64.000000pt" viewBox="0 0 64.000000 64.000000"
 preserveAspectRatio="xMidYMid meet">

<g transform="translate(0.000000,64.000000) scale(0.100000,-0.100000)"
fill="#000000" stroke="none">
<path d="M62 488 c-17 -17 -17 -329 0 -346 17 -17 509 -17 526 0 17 17 17 329
0 346 -17 17 -509 17 -526 0z m508 -173 l0 -165 -245 0 -245 0 0 165 0 165
245 0 245 0 0 -165z"/>
<path d="M120 441 c0 -7 58 -59 109 -98 13 -9 7 -21 -47 -81 -34 -39 -62 -73
-62 -76 0 -17 25 1 81 59 l62 65 31 -24 31 -23 31 23 31 24 62 -65 c56 -58 81
-76 81 -59 0 3 -27 37 -61 74 l-61 69 36 32 c20 17 48 40 61 51 26 20 33 38
15 38 -6 0 -50 -34 -99 -75 -48 -41 -92 -75 -96 -75 -4 0 -47 34 -96 75 -82
71 -109 87 -109 66z"/>
</g>
</svg>
