<?xml version="1.0" standalone="no"?>
<!DOCTYPE svg PUBLIC "-//W3C//DTD SVG 20010904//EN"
 "http://www.w3.org/TR/2001/REC-SVG-20010904/DTD/svg10.dtd">
<svg version="1.0" xmlns="http://www.w3.org/2000/svg"
 width="519.000000pt" height="544.000000pt" viewBox="0 0 519.000000 544.000000"
 preserveAspectRatio="xMidYMid meet">
<metadata>
Created by potrace 1.16, written by Peter Selinger 2001-2019
</metadata>
<g transform="translate(0.000000,544.000000) scale(0.100000,-0.100000)"
fill="#000000" stroke="none">
<path d="M3415 5173 c-61 -5 -233 -33 -300 -48 -33 -7 -87 -16 -119 -20 -33
-4 -66 -10 -75 -15 -9 -4 -56 -20 -106 -35 -49 -14 -106 -31 -125 -37 -19 -6
-53 -23 -75 -38 -22 -15 -69 -43 -105 -63 -36 -20 -70 -45 -77 -56 -6 -10 -36
-33 -65 -50 -29 -16 -63 -43 -75 -58 -12 -15 -47 -55 -78 -88 -30 -32 -55 -65
-55 -72 0 -6 -6 -16 -14 -20 -15 -8 -89 -121 -107 -163 -6 -14 -17 -52 -26
-84 -8 -33 -18 -67 -23 -75 -15 -34 -54 -158 -61 -201 -4 -25 -15 -72 -23
-105 -26 -110 -36 -180 -36 -268 l0 -87 -38 -19 c-21 -11 -60 -45 -86 -75 -43
-50 -49 -63 -56 -124 -5 -37 -13 -105 -19 -153 -20 -153 -6 -344 29 -410 35
-65 83 -124 163 -202 l91 -87 7 -108 c3 -59 13 -143 22 -187 34 -164 51 -242
73 -327 16 -64 13 -122 -15 -268 -10 -52 -24 -133 -30 -180 -7 -47 -19 -114
-27 -150 -30 -128 -56 -235 -64 -260 -4 -14 -14 -52 -21 -85 -7 -33 -17 -69
-22 -80 -37 -73 -197 -212 -280 -241 -35 -13 -55 -13 -112 -4 -88 13 -151 -1
-285 -67 -52 -25 -142 -65 -199 -89 -57 -24 -109 -48 -115 -52 -6 -5 -27 -15
-46 -22 -19 -7 -72 -35 -116 -62 -94 -56 -279 -129 -409 -163 -88 -22 -187
-57 -213 -74 -20 -12 35 -55 103 -80 55 -21 63 -21 1400 -21 1154 0 1345 2
1345 14 0 8 6 17 13 20 8 3 5 11 -11 25 -22 19 -22 21 -7 57 8 20 15 40 15 44
0 12 -39 19 -46 9 -3 -5 -11 -6 -17 -2 -7 4 -6 0 2 -10 17 -22 -1 -30 -43 -19
-32 9 -43 37 -19 51 10 5 14 16 10 30 -3 14 0 24 9 28 20 7 17 21 -9 46 -12
12 -28 35 -35 50 -11 25 -9 30 18 57 24 23 30 38 30 70 0 25 5 40 13 41 23 1
49 8 55 13 11 12 30 76 19 69 -5 -3 -8 0 -5 8 3 8 14 19 26 25 12 6 19 14 15
17 -3 4 1 7 10 7 9 0 21 9 27 20 6 11 8 20 5 20 -12 0 59 70 76 75 11 4 19 13
19 22 0 8 14 20 30 26 17 6 30 15 30 18 0 4 17 5 39 3 30 -4 40 -1 45 12 4 10
2 20 -4 24 -7 4 -3 13 9 24 15 14 24 15 40 7 11 -6 27 -11 36 -11 14 0 99 37
205 90 8 4 16 19 18 34 3 27 17 35 24 14 7 -19 25 -1 31 32 5 22 10 28 23 23
13 -5 15 -2 10 15 -5 16 0 25 21 39 15 10 32 23 36 30 4 7 35 41 67 75 33 35
60 66 60 70 0 5 20 28 45 54 25 25 45 51 45 59 0 7 6 15 13 18 6 2 9 7 6 11
-9 9 -61 -20 -89 -49 -13 -14 -29 -25 -36 -25 -7 0 -22 -15 -33 -32 -51 -81
-259 -228 -323 -228 -9 0 -20 -4 -23 -10 -3 -5 -16 -10 -28 -10 -24 0 -93 22
-103 33 -4 4 -18 7 -30 7 -27 0 -134 27 -143 36 -3 3 -6 10 -6 16 0 13 -21 25
-55 32 -38 8 -68 90 -45 123 7 10 16 39 20 64 4 25 10 50 13 56 10 15 104 33
177 33 l63 0 12 36 c10 30 9 38 -6 55 -9 10 -23 19 -31 19 -8 0 -18 12 -24 28
-13 36 -116 102 -161 102 -33 1 -68 19 -68 37 0 5 -18 28 -41 51 -22 23 -38
46 -34 51 6 11 93 27 110 21 6 -2 96 -4 200 -5 159 -2 205 -6 280 -24 76 -19
104 -22 186 -16 53 4 102 11 110 16 8 5 9 9 2 9 -6 0 -20 16 -32 35 -19 34
-23 35 -78 35 -32 0 -80 6 -108 14 -30 8 -85 11 -138 9 -107 -4 -147 11 -147
56 0 20 6 30 20 34 30 8 24 27 -7 27 -16 1 -41 6 -57 13 l-29 13 54 16 c30 10
76 20 104 24 47 6 68 19 126 78 26 27 25 62 -3 70 -46 12 -114 6 -151 -14 -20
-11 -43 -20 -50 -20 -18 0 -67 24 -67 33 0 4 -7 7 -16 7 -11 0 -15 8 -13 28 4
35 -35 116 -67 137 -22 14 -28 14 -70 0 -64 -22 -81 -19 -140 20 -58 39 -69
60 -60 111 8 41 50 67 113 68 33 1 48 -5 71 -28 30 -27 30 -28 41 -8 6 12 11
41 11 66 0 53 -20 70 -72 59 -45 -9 -136 -50 -173 -77 -16 -13 -54 -35 -84
-50 -29 -15 -59 -32 -65 -37 -57 -46 -78 -58 -121 -72 -27 -9 -68 -19 -90 -23
-39 -6 -41 -5 -108 68 -83 90 -99 108 -91 108 4 0 1 7 -6 15 -20 24 14 195 39
195 4 0 22 20 41 45 19 25 39 45 44 45 6 0 24 7 41 16 16 8 48 17 70 18 41 3
255 -53 308 -80 16 -8 48 -14 72 -14 24 0 46 -4 49 -9 5 -8 30 -4 96 15 40 12
197 121 217 151 10 15 41 50 70 78 48 47 52 54 54 102 3 53 -11 83 -37 83 -8
0 -14 9 -14 19 0 15 -8 21 -32 23 -27 2 -37 10 -55 46 -31 62 -39 70 -81 70
-42 1 -112 27 -112 42 0 6 -10 10 -22 10 -38 0 -43 12 -44 98 -2 72 -5 88 -28
120 -14 21 -26 45 -26 54 0 23 51 78 73 78 10 0 31 7 47 15 17 9 33 16 37 16
5 1 14 4 21 7 7 2 15 2 19 -1 3 -4 21 0 39 8 19 8 36 10 39 5 3 -6 16 -5 31 0
19 7 31 6 50 -6 20 -14 30 -15 50 -5 36 16 42 14 46 -15 l3 -25 24 22 c19 18
25 19 32 8 8 -12 13 -10 27 6 9 11 28 21 42 23 14 1 39 18 57 39 37 44 50 32
35 -35 -5 -22 -7 -43 -4 -47 11 -11 22 -4 22 14 0 11 11 41 25 67 14 26 25 53
25 61 0 19 30 29 40 13 11 -18 30 -3 30 25 0 45 18 75 45 75 15 0 25 6 25 14
0 26 21 28 41 4 l21 -23 -7 26 c-6 24 -4 25 25 21 17 -2 42 1 54 8 19 10 29 9
53 -4 17 -8 43 -14 58 -13 23 2 31 -5 50 -40 13 -23 38 -61 57 -85 40 -50 88
-124 88 -135 0 -4 16 -24 35 -43 115 -114 174 -220 200 -360 8 -47 24 -119 34
-160 36 -144 35 -228 -9 -532 -13 -85 -13 -128 0 -128 5 0 14 17 19 38 5 20
15 57 21 82 14 53 43 112 63 128 8 7 20 34 27 60 6 26 18 61 25 77 17 37 50
152 64 220 6 28 20 91 31 140 68 310 66 297 50 367 -55 243 -58 253 -125 393
-18 39 -39 86 -46 105 -31 81 -123 214 -178 258 -22 18 -41 39 -41 46 0 20
-51 63 -103 86 -43 19 -49 20 -63 5 -24 -24 -55 -14 -76 23 l-18 33 27 10 c15
5 37 8 49 5 25 -7 54 2 54 15 0 5 -9 9 -21 9 -12 0 -19 5 -17 12 5 14 -52 64
-92 81 -14 6 -47 28 -73 50 -43 35 -152 87 -183 87 -6 0 -26 10 -45 23 -46 31
-160 67 -213 67 -24 0 -61 6 -82 14 -44 15 -148 24 -209 19z m-605 -2678 c0
-24 -49 -117 -79 -148 -51 -56 -128 -78 -156 -47 -16 18 -16 21 -2 44 9 13 41
35 70 49 45 20 55 30 60 56 5 23 15 36 39 46 43 19 68 19 68 0z"/>
<path d="M3740 3332 c-22 -2 -47 -15 -68 -35 -30 -29 -33 -36 -27 -71 6 -42
-15 -79 -40 -70 -17 7 -30 -15 -17 -28 6 -6 8 -41 5 -86 -5 -69 -3 -80 17
-105 22 -28 134 -107 151 -107 5 0 27 -9 49 -20 22 -11 55 -20 75 -20 20 0 45
-5 56 -10 22 -12 86 -16 96 -7 3 4 1 18 -5 31 -9 20 -7 28 9 47 13 15 16 26 9
33 -19 19 -10 23 43 18 31 -3 66 -14 87 -28 56 -38 180 -27 180 17 0 38 -33
87 -69 104 -44 19 -124 92 -116 104 3 5 20 12 38 16 17 4 44 12 59 18 l27 12
-21 22 c-18 20 -19 23 -5 23 30 0 18 16 -25 34 -24 10 -52 21 -63 26 -11 5
-40 8 -65 8 -26 -1 -64 8 -90 20 -25 11 -63 23 -85 27 -22 4 -53 10 -70 15
-43 12 -94 16 -135 12z"/>
<path d="M3750 2366 c0 -15 51 -150 71 -188 5 -10 9 -22 9 -28 0 -6 22 -39 49
-73 26 -35 54 -80 62 -100 24 -67 63 -17 54 70 -5 55 -18 76 -125 200 -24 29
-54 69 -66 90 -22 40 -54 57 -54 29z"/>
<path d="M4399 1030 c-50 -26 -88 -74 -94 -118 -3 -20 -7 -175 -8 -343 -2
-332 -2 -328 -59 -342 -21 -6 -28 -3 -33 14 -8 25 -30 10 -40 -28 -8 -32 -77
-135 -107 -160 -13 -10 -29 -26 -37 -36 -13 -16 17 -17 578 -17 l591 0 0 525
0 525 -377 0 c-353 -1 -380 -2 -414 -20z"/>
</g>
</svg>
