<?xml version="1.0" encoding="UTF-8"?>
<svg xmlns="http://www.w3.org/2000/svg" xmlns:xlink="http://www.w3.org/1999/xlink" width="561px" height="588px" viewBox="0 0 561 587" version="1.1">
<g id="surface1">
<path style=" stroke:none;fill-rule:nonzero;fill:rgb(0%,0%,0%);fill-opacity:1;" d="M 368.992188 28.808594 C 362.402344 29.351562 343.816406 32.371094 336.578125 33.988281 C 333.011719 34.746094 327.179688 35.714844 323.71875 36.148438 C 320.15625 36.578125 316.589844 37.226562 315.617188 37.765625 C 314.644531 38.199219 309.566406 39.925781 304.164062 41.542969 C 298.867188 43.054688 292.710938 44.886719 290.65625 45.535156 C 288.605469 46.183594 284.929688 48.015625 282.554688 49.636719 C 280.175781 51.253906 275.097656 54.277344 271.207031 56.433594 C 267.316406 58.59375 263.644531 61.289062 262.886719 62.476562 C 262.238281 63.554688 258.996094 66.039062 255.863281 67.871094 C 252.730469 69.597656 249.058594 72.511719 247.761719 74.128906 C 246.464844 75.75 242.683594 80.066406 239.332031 83.625 C 236.089844 87.078125 233.390625 90.640625 233.390625 91.394531 C 233.390625 92.042969 232.742188 93.121094 231.878906 93.554688 C 230.257812 94.417969 222.261719 106.609375 220.316406 111.140625 C 219.667969 112.652344 218.480469 116.753906 217.507812 120.207031 C 216.640625 123.765625 215.5625 127.433594 215.019531 128.296875 C 213.402344 131.96875 209.1875 145.347656 208.429688 149.988281 C 207.996094 152.683594 206.808594 157.757812 205.945312 161.316406 C 203.136719 173.1875 202.054688 180.738281 202.054688 190.234375 L 202.054688 199.625 L 197.949219 201.671875 C 195.679688 202.859375 191.464844 206.527344 188.65625 209.765625 C 184.011719 215.160156 183.363281 216.5625 182.605469 223.144531 C 182.066406 227.140625 181.203125 234.476562 180.554688 239.65625 C 178.390625 256.164062 179.90625 276.773438 183.6875 283.898438 C 187.46875 290.910156 192.65625 297.277344 201.296875 305.691406 L 211.132812 315.082031 L 211.886719 326.734375 C 212.210938 333.101562 213.292969 342.164062 214.265625 346.914062 C 217.9375 364.609375 219.777344 373.027344 222.152344 382.199219 C 223.882812 389.101562 223.558594 395.363281 220.53125 411.117188 C 219.453125 416.726562 217.9375 425.46875 217.289062 430.539062 C 216.535156 435.609375 215.238281 442.839844 214.371094 446.722656 C 211.132812 460.535156 208.320312 472.082031 207.457031 474.78125 C 207.027344 476.289062 205.945312 480.390625 205.1875 483.953125 C 204.433594 487.511719 203.351562 491.398438 202.8125 492.582031 C 198.8125 500.460938 181.527344 515.460938 172.558594 518.589844 C 168.777344 519.992188 166.613281 519.992188 160.457031 519.019531 C 150.945312 517.617188 144.140625 519.128906 129.660156 526.25 C 124.042969 528.949219 114.316406 533.261719 108.160156 535.851562 C 102 538.441406 96.382812 541.03125 95.734375 541.464844 C 95.085938 542.003906 92.816406 543.082031 90.761719 543.839844 C 88.710938 544.59375 82.984375 547.613281 78.230469 550.527344 C 68.070312 556.570312 48.082031 564.449219 34.035156 568.117188 C 24.527344 570.492188 13.832031 574.265625 11.019531 576.101562 C 8.859375 577.398438 14.804688 582.035156 22.152344 584.734375 C 28.09375 587 28.957031 587 173.421875 587 C 298.113281 587 318.75 586.785156 318.75 585.488281 C 318.75 584.625 319.398438 583.65625 320.15625 583.332031 C 321.019531 583.007812 320.695312 582.144531 318.964844 580.632812 C 316.589844 578.582031 316.589844 578.367188 318.210938 574.484375 C 319.074219 572.324219 319.832031 570.167969 319.832031 569.734375 C 319.832031 568.441406 315.617188 567.683594 314.859375 568.765625 C 314.535156 569.304688 313.671875 569.410156 313.023438 568.980469 C 312.265625 568.546875 312.375 568.980469 313.238281 570.058594 C 315.078125 572.433594 313.132812 573.296875 308.59375 572.109375 C 305.136719 571.136719 303.945312 568.117188 306.539062 566.605469 C 307.621094 566.066406 308.054688 564.878906 307.621094 563.367188 C 307.296875 561.859375 307.621094 560.777344 308.59375 560.347656 C 310.753906 559.59375 310.429688 558.082031 307.621094 555.382812 C 306.324219 554.089844 304.59375 551.605469 303.839844 549.988281 C 302.652344 547.292969 302.867188 546.75 305.785156 543.839844 C 308.378906 541.355469 309.027344 539.738281 309.027344 536.285156 C 309.027344 533.585938 309.566406 531.96875 310.429688 531.859375 C 312.914062 531.753906 315.722656 530.996094 316.371094 530.457031 C 317.5625 529.164062 319.613281 522.257812 318.425781 523.011719 C 317.886719 523.335938 317.5625 523.011719 317.886719 522.148438 C 318.210938 521.285156 319.398438 520.097656 320.695312 519.453125 C 321.992188 518.804688 322.746094 517.941406 322.316406 517.617188 C 321.992188 517.1875 322.421875 516.863281 323.394531 516.863281 C 324.367188 516.863281 325.664062 515.890625 326.3125 514.703125 C 326.960938 513.515625 327.179688 512.546875 326.855469 512.546875 C 325.558594 512.546875 333.230469 504.992188 335.066406 504.453125 C 336.253906 504.023438 337.117188 503.050781 337.117188 502.078125 C 337.117188 501.214844 338.632812 499.921875 340.359375 499.273438 C 342.195312 498.625 343.601562 497.65625 343.601562 497.332031 C 343.601562 496.898438 345.4375 496.792969 347.816406 497.007812 C 351.058594 497.4375 352.136719 497.117188 352.679688 495.710938 C 353.109375 494.632812 352.894531 493.554688 352.246094 493.125 C 351.488281 492.691406 351.921875 491.71875 353.21875 490.535156 C 354.839844 489.023438 355.8125 488.914062 357.539062 489.777344 C 358.730469 490.425781 360.457031 490.964844 361.429688 490.964844 C 362.941406 490.964844 372.128906 486.972656 383.582031 481.253906 C 384.445312 480.820312 385.308594 479.203125 385.527344 477.585938 C 385.847656 474.671875 387.363281 473.808594 388.117188 476.074219 C 388.875 478.125 390.820312 476.183594 391.46875 472.621094 C 392.007812 470.246094 392.546875 469.601562 393.953125 470.140625 C 395.359375 470.679688 395.574219 470.355469 395.035156 468.519531 C 394.492188 466.792969 395.035156 465.824219 397.304688 464.3125 C 398.921875 463.234375 400.761719 461.832031 401.191406 461.074219 C 401.625 460.320312 404.972656 456.652344 408.433594 452.984375 C 411.996094 449.207031 414.914062 445.859375 414.914062 445.429688 C 414.914062 444.890625 417.078125 442.40625 419.777344 439.601562 C 422.480469 436.90625 424.640625 434.097656 424.640625 433.234375 C 424.640625 432.480469 425.289062 431.617188 426.042969 431.292969 C 426.691406 431.078125 427.015625 430.539062 426.691406 430.105469 C 425.71875 429.136719 420.101562 432.265625 417.078125 435.394531 C 415.671875 436.90625 413.941406 438.09375 413.1875 438.09375 C 412.429688 438.09375 410.808594 439.710938 409.621094 441.542969 C 404.109375 450.285156 381.636719 466.148438 374.71875 466.148438 C 373.746094 466.148438 372.558594 466.578125 372.234375 467.226562 C 371.910156 467.765625 370.507812 468.304688 369.210938 468.304688 C 366.617188 468.304688 359.160156 465.929688 358.082031 464.746094 C 357.648438 464.3125 356.136719 463.988281 354.839844 463.988281 C 351.921875 463.988281 340.359375 461.074219 339.386719 460.105469 C 339.0625 459.78125 338.738281 459.023438 338.738281 458.378906 C 338.738281 456.976562 336.46875 455.679688 332.796875 454.925781 C 328.691406 454.0625 325.449219 445.214844 327.933594 441.652344 C 328.691406 440.574219 329.664062 437.445312 330.09375 434.746094 C 330.527344 432.050781 331.175781 429.351562 331.5 428.703125 C 332.582031 427.085938 342.738281 425.144531 350.625 425.144531 L 357.433594 425.144531 L 358.730469 421.257812 C 359.808594 418.023438 359.703125 417.160156 358.082031 415.324219 C 357.109375 414.246094 355.59375 413.273438 354.730469 413.273438 C 353.867188 413.273438 352.785156 411.980469 352.136719 410.253906 C 350.734375 406.367188 339.605469 399.246094 334.742188 399.246094 C 331.175781 399.136719 327.394531 397.195312 327.394531 395.253906 C 327.394531 394.714844 325.449219 392.234375 322.964844 389.75 C 320.585938 387.269531 318.859375 384.789062 319.289062 384.246094 C 319.9375 383.0625 329.339844 381.335938 331.175781 381.980469 C 331.824219 382.199219 341.546875 382.414062 352.785156 382.519531 C 369.964844 382.738281 374.9375 383.167969 383.039062 385.109375 C 391.253906 387.160156 394.277344 387.484375 403.136719 386.835938 C 408.863281 386.40625 414.160156 385.648438 415.023438 385.109375 C 415.886719 384.570312 415.996094 384.140625 415.238281 384.140625 C 414.589844 384.140625 413.078125 382.414062 411.78125 380.363281 C 409.730469 376.695312 409.296875 376.585938 403.355469 376.585938 C 399.894531 376.585938 394.710938 375.9375 391.683594 375.074219 C 388.441406 374.210938 382.5 373.890625 376.773438 374.105469 C 365.210938 374.535156 360.890625 372.917969 360.890625 368.0625 C 360.890625 365.902344 361.539062 364.824219 363.050781 364.394531 C 366.292969 363.53125 365.644531 361.480469 362.292969 361.480469 C 360.566406 361.371094 357.863281 360.832031 356.136719 360.078125 L 353.003906 358.675781 L 358.835938 356.949219 C 362.078125 355.867188 367.046875 354.789062 370.074219 354.359375 C 375.152344 353.710938 377.421875 352.308594 383.6875 345.941406 C 386.496094 343.027344 386.390625 339.25 383.363281 338.386719 C 378.394531 337.09375 371.046875 337.742188 367.046875 339.898438 C 364.886719 341.085938 362.402344 342.058594 361.644531 342.058594 C 359.703125 342.058594 354.40625 339.46875 354.40625 338.496094 C 354.40625 338.066406 353.652344 337.742188 352.679688 337.742188 C 351.488281 337.742188 351.058594 336.878906 351.273438 334.71875 C 351.707031 330.941406 347.492188 322.203125 344.035156 319.9375 C 341.65625 318.425781 341.007812 318.425781 336.46875 319.9375 C 329.554688 322.308594 327.71875 321.988281 321.34375 317.777344 C 315.078125 313.570312 313.886719 311.304688 314.859375 305.800781 C 315.722656 301.378906 320.261719 298.570312 327.070312 298.464844 C 330.636719 298.355469 332.257812 299.003906 334.742188 301.484375 C 337.984375 304.398438 337.984375 304.507812 339.171875 302.347656 C 339.820312 301.054688 340.359375 297.925781 340.359375 295.226562 C 340.359375 289.507812 338.199219 287.671875 332.582031 288.859375 C 327.71875 289.832031 317.886719 294.253906 313.886719 297.167969 C 312.160156 298.570312 308.054688 300.945312 304.8125 302.5625 C 301.679688 304.183594 298.4375 306.015625 297.789062 306.554688 C 291.628906 311.519531 289.359375 312.816406 284.714844 314.324219 C 281.796875 315.296875 277.367188 316.375 274.988281 316.808594 C 270.777344 317.453125 270.558594 317.347656 263.320312 309.46875 C 254.351562 299.757812 252.621094 297.816406 253.488281 297.816406 C 253.917969 297.816406 253.59375 297.0625 252.839844 296.199219 C 250.679688 293.609375 254.351562 275.15625 257.054688 275.15625 C 257.484375 275.15625 259.429688 273 261.484375 270.300781 C 263.535156 267.601562 265.695312 265.445312 266.238281 265.445312 C 266.886719 265.445312 268.832031 264.691406 270.667969 263.71875 C 272.394531 262.855469 275.855469 261.882812 278.230469 261.777344 C 282.660156 261.453125 305.785156 267.496094 311.511719 270.410156 C 313.238281 271.273438 316.695312 271.917969 319.289062 271.917969 C 321.882812 271.917969 324.261719 272.351562 324.585938 272.890625 C 325.125 273.753906 327.828125 273.320312 334.957031 271.273438 C 339.28125 269.976562 356.242188 258.214844 358.40625 254.976562 C 359.484375 253.359375 362.835938 249.582031 365.96875 246.5625 C 371.15625 241.488281 371.585938 240.734375 371.804688 235.554688 C 372.128906 229.835938 370.613281 226.597656 367.804688 226.597656 C 366.941406 226.597656 366.292969 225.628906 366.292969 224.550781 C 366.292969 222.929688 365.429688 222.28125 362.835938 222.066406 C 359.917969 221.851562 358.835938 220.988281 356.890625 217.105469 C 353.542969 210.414062 352.679688 209.550781 348.140625 209.550781 C 343.601562 209.441406 336.039062 206.636719 336.039062 205.019531 C 336.039062 204.371094 334.957031 203.9375 333.660156 203.9375 C 329.554688 203.9375 329.015625 202.644531 328.90625 193.363281 C 328.691406 185.59375 328.367188 183.867188 325.882812 180.417969 C 324.367188 178.148438 323.070312 175.558594 323.070312 174.589844 C 323.070312 172.109375 328.582031 166.171875 330.960938 166.171875 C 332.039062 166.171875 334.308594 165.417969 336.039062 164.554688 C 337.875 163.582031 339.605469 162.828125 340.035156 162.828125 C 340.578125 162.71875 341.546875 162.394531 342.304688 162.074219 C 343.0625 161.855469 343.925781 161.855469 344.359375 162.179688 C 344.683594 162.613281 346.628906 162.179688 348.570312 161.316406 C 350.625 160.453125 352.460938 160.238281 352.785156 160.777344 C 353.109375 161.425781 354.515625 161.316406 356.136719 160.777344 C 358.1875 160.023438 359.484375 160.128906 361.539062 161.425781 C 363.699219 162.9375 364.78125 163.042969 366.941406 161.964844 C 370.832031 160.238281 371.480469 160.453125 371.910156 163.582031 L 372.234375 166.28125 L 374.828125 163.90625 C 376.882812 161.964844 377.53125 161.855469 378.285156 163.042969 C 379.152344 164.339844 379.691406 164.121094 381.203125 162.394531 C 382.175781 161.210938 384.230469 160.128906 385.742188 159.914062 C 387.253906 159.804688 389.957031 157.972656 391.902344 155.707031 C 395.898438 150.957031 397.304688 152.253906 395.683594 159.484375 C 395.140625 161.855469 394.925781 164.121094 395.25 164.554688 C 396.4375 165.742188 397.628906 164.984375 397.628906 163.042969 C 397.628906 161.855469 398.816406 158.621094 400.328125 155.8125 C 401.839844 153.007812 403.03125 150.09375 403.03125 149.230469 C 403.03125 147.179688 406.269531 146.101562 407.351562 147.828125 C 408.539062 149.769531 410.59375 148.152344 410.59375 145.132812 C 410.59375 140.277344 412.539062 137.039062 415.457031 137.039062 C 417.078125 137.039062 418.15625 136.390625 418.15625 135.527344 C 418.15625 132.722656 420.425781 132.507812 422.585938 135.097656 L 424.855469 137.578125 L 424.097656 134.773438 C 423.453125 132.183594 423.667969 132.074219 426.800781 132.507812 C 428.636719 132.722656 431.339844 132.398438 432.636719 131.644531 C 434.6875 130.5625 435.769531 130.671875 438.363281 132.074219 C 440.199219 132.9375 443.007812 133.585938 444.628906 133.476562 C 447.113281 133.261719 447.980469 134.015625 450.03125 137.792969 C 451.4375 140.277344 454.136719 144.375 456.191406 146.964844 C 460.511719 152.359375 465.699219 160.347656 465.699219 161.53125 C 465.699219 161.964844 467.429688 164.121094 469.480469 166.171875 C 481.90625 178.472656 488.28125 189.910156 491.089844 205.019531 C 491.957031 210.089844 493.683594 217.859375 494.765625 222.28125 C 498.65625 237.820312 498.546875 246.886719 493.792969 279.6875 C 492.386719 288.859375 492.386719 293.5 493.792969 293.5 C 494.332031 293.5 495.304688 291.664062 495.84375 289.398438 C 496.386719 287.242188 497.464844 283.25 498.113281 280.550781 C 499.628906 274.832031 502.761719 268.464844 504.921875 266.738281 C 505.785156 265.984375 507.082031 263.070312 507.839844 260.265625 C 508.488281 257.460938 509.785156 253.683594 510.539062 251.957031 C 512.378906 247.964844 515.941406 235.554688 517.457031 228.21875 C 518.105469 225.195312 519.617188 218.398438 520.804688 213.109375 C 528.152344 179.660156 527.9375 181.0625 526.207031 173.511719 C 520.265625 147.289062 519.941406 146.210938 512.703125 131.105469 C 510.757812 126.894531 508.488281 121.824219 507.730469 119.773438 C 504.382812 111.035156 494.441406 96.683594 488.496094 91.933594 C 486.121094 89.992188 484.066406 87.726562 484.066406 86.972656 C 484.066406 84.8125 478.558594 80.171875 472.9375 77.691406 C 468.292969 75.640625 467.644531 75.53125 466.132812 77.152344 C 463.539062 79.742188 460.1875 78.664062 457.917969 74.667969 L 455.972656 71.109375 L 458.890625 70.03125 C 460.511719 69.492188 462.890625 69.167969 464.1875 69.492188 C 466.886719 70.246094 470.019531 69.273438 470.019531 67.871094 C 470.019531 67.332031 469.046875 66.902344 467.753906 66.902344 C 466.457031 66.902344 465.699219 66.359375 465.914062 65.605469 C 466.457031 64.09375 460.296875 58.699219 455.972656 56.867188 C 454.460938 56.21875 450.894531 53.84375 448.085938 51.46875 C 443.441406 47.695312 431.664062 42.082031 428.3125 42.082031 C 427.664062 42.082031 425.503906 41.003906 423.453125 39.601562 C 418.480469 36.257812 406.164062 32.371094 400.4375 32.371094 C 397.84375 32.371094 393.84375 31.722656 391.578125 30.859375 C 386.820312 29.242188 375.585938 28.269531 368.992188 28.808594 Z M 303.621094 317.777344 C 303.621094 320.367188 298.328125 330.402344 295.085938 333.75 C 289.578125 339.789062 281.257812 342.164062 278.230469 338.820312 C 276.503906 336.878906 276.503906 336.554688 278.015625 334.070312 C 278.988281 332.667969 282.445312 330.296875 285.578125 328.785156 C 290.441406 326.625 291.519531 325.546875 292.0625 322.742188 C 292.601562 320.261719 293.683594 318.859375 296.277344 317.777344 C 300.921875 315.726562 303.621094 315.726562 303.621094 317.777344 Z M 303.621094 317.777344 "/>
<path style=" stroke:none;fill-rule:nonzero;fill:rgb(0%,0%,0%);fill-opacity:1;" d="M 404.109375 227.460938 C 401.734375 227.679688 399.03125 229.082031 396.761719 231.238281 C 393.519531 234.367188 393.195312 235.125 393.84375 238.898438 C 394.492188 243.433594 392.222656 247.425781 389.523438 246.453125 C 387.6875 245.699219 386.28125 248.070312 387.6875 249.476562 C 388.335938 250.121094 388.550781 253.898438 388.226562 258.753906 C 387.6875 266.199219 387.902344 267.386719 390.0625 270.085938 C 392.441406 273.105469 404.542969 281.628906 406.378906 281.628906 C 406.917969 281.628906 409.296875 282.601562 411.671875 283.789062 C 414.050781 284.976562 417.617188 285.945312 419.777344 285.945312 C 421.9375 285.945312 424.640625 286.484375 425.828125 287.027344 C 428.207031 288.320312 435.121094 288.753906 436.203125 287.78125 C 436.527344 287.347656 436.308594 285.839844 435.660156 284.4375 C 434.6875 282.277344 434.90625 281.414062 436.632812 279.363281 C 438.039062 277.746094 438.363281 276.558594 437.605469 275.804688 C 435.554688 273.753906 436.527344 273.320312 442.253906 273.863281 C 445.601562 274.183594 449.382812 275.371094 451.652344 276.882812 C 457.703125 280.984375 471.101562 279.796875 471.101562 275.046875 C 471.101562 270.949219 467.535156 265.660156 463.644531 263.828125 C 458.890625 261.777344 450.246094 253.898438 451.113281 252.605469 C 451.4375 252.066406 453.273438 251.308594 455.21875 250.878906 C 457.054688 250.445312 459.972656 249.582031 461.59375 248.933594 L 464.511719 247.640625 L 462.242188 245.265625 C 460.296875 243.109375 460.1875 242.785156 461.703125 242.785156 C 464.941406 242.785156 463.644531 241.058594 459 239.117188 C 456.40625 238.039062 453.382812 236.851562 452.191406 236.3125 C 451.003906 235.769531 447.871094 235.449219 445.167969 235.449219 C 442.359375 235.554688 438.253906 234.585938 435.445312 233.289062 C 432.742188 232.101562 428.636719 230.808594 426.261719 230.375 C 423.882812 229.945312 420.535156 229.296875 418.695312 228.757812 C 414.050781 227.460938 408.539062 227.03125 404.109375 227.460938 Z M 404.109375 227.460938 "/>
<path style=" stroke:none;fill-rule:nonzero;fill:rgb(0%,0%,0%);fill-opacity:1;" d="M 405.191406 331.699219 C 405.191406 333.316406 410.703125 347.882812 412.863281 351.984375 C 413.402344 353.0625 413.835938 354.359375 413.835938 355.003906 C 413.835938 355.652344 416.210938 359.214844 419.128906 362.882812 C 421.9375 366.660156 424.964844 371.515625 425.828125 373.671875 C 428.421875 380.902344 432.636719 375.507812 431.664062 366.121094 C 431.121094 360.183594 429.71875 357.917969 418.15625 344.539062 C 415.5625 341.410156 412.320312 337.09375 411.027344 334.828125 C 408.648438 330.511719 405.191406 328.675781 405.191406 331.699219 Z M 405.191406 331.699219 "/>
<path style=" stroke:none;fill-rule:nonzero;fill:rgb(0%,0%,0%);fill-opacity:1;" d="M 475.316406 475.859375 C 469.914062 478.664062 465.808594 483.84375 465.160156 488.589844 C 464.835938 490.75 464.402344 507.472656 464.292969 525.601562 C 464.078125 561.425781 464.078125 560.996094 457.917969 562.503906 C 455.652344 563.152344 454.894531 562.828125 454.355469 560.996094 C 453.488281 558.296875 451.113281 559.914062 450.03125 564.015625 C 449.167969 567.46875 441.710938 578.582031 438.46875 581.28125 C 437.066406 582.359375 435.335938 584.085938 434.472656 585.164062 C 433.066406 586.890625 436.308594 587 496.925781 587 L 560.785156 587 L 560.785156 473.699219 L 520.046875 473.699219 C 481.90625 473.808594 478.988281 473.917969 475.316406 475.859375 Z M 475.316406 475.859375 "/>
</g>
</svg>
