<?xml version="1.0" encoding="UTF-8"?>
<svg xmlns="http://www.w3.org/2000/svg" xmlns:xlink="http://www.w3.org/1999/xlink" width="10px" height="10px" viewBox="0 0 10 10" version="1.1">
<g id="surface1">
<path style=" stroke:none;fill-rule:nonzero;fill:rgb(0%,0%,0%);fill-opacity:1;" d="M 6.578125 0.492188 C 6.460938 0.5 6.128906 0.550781 6 0.578125 C 5.9375 0.59375 5.832031 0.609375 5.769531 0.617188 C 5.707031 0.625 5.644531 0.632812 5.625 0.644531 C 5.609375 0.652344 5.519531 0.679688 5.421875 0.707031 C 5.328125 0.734375 5.21875 0.765625 5.179688 0.777344 C 5.144531 0.785156 5.078125 0.816406 5.035156 0.84375 C 4.996094 0.875 4.902344 0.925781 4.835938 0.960938 C 4.765625 1 4.699219 1.042969 4.6875 1.0625 C 4.675781 1.082031 4.617188 1.125 4.5625 1.15625 C 4.503906 1.1875 4.441406 1.234375 4.417969 1.261719 C 4.394531 1.289062 4.324219 1.363281 4.265625 1.425781 C 4.207031 1.484375 4.160156 1.542969 4.160156 1.558594 C 4.160156 1.566406 4.148438 1.585938 4.132812 1.59375 C 4.105469 1.609375 3.960938 1.816406 3.925781 1.894531 C 3.914062 1.917969 3.894531 1.988281 3.878906 2.046875 C 3.863281 2.109375 3.84375 2.171875 3.832031 2.1875 C 3.804688 2.25 3.730469 2.476562 3.714844 2.554688 C 3.707031 2.601562 3.6875 2.6875 3.671875 2.75 C 3.621094 2.949219 3.601562 3.078125 3.601562 3.242188 L 3.601562 3.402344 L 3.527344 3.4375 C 3.488281 3.457031 3.414062 3.519531 3.363281 3.574219 C 3.28125 3.664062 3.269531 3.6875 3.253906 3.800781 C 3.246094 3.871094 3.230469 3.996094 3.21875 4.082031 C 3.179688 4.363281 3.207031 4.714844 3.273438 4.835938 C 3.339844 4.957031 3.433594 5.0625 3.589844 5.207031 L 3.761719 5.367188 L 3.777344 5.566406 C 3.78125 5.675781 3.800781 5.828125 3.820312 5.910156 C 3.886719 6.210938 3.917969 6.355469 3.960938 6.511719 C 3.992188 6.628906 3.984375 6.734375 3.929688 7.003906 C 3.910156 7.097656 3.886719 7.25 3.875 7.335938 C 3.859375 7.421875 3.835938 7.542969 3.820312 7.609375 C 3.761719 7.84375 3.714844 8.042969 3.699219 8.089844 C 3.691406 8.113281 3.671875 8.183594 3.65625 8.246094 C 3.644531 8.304688 3.625 8.371094 3.613281 8.390625 C 3.542969 8.527344 3.234375 8.78125 3.074219 8.835938 C 3.007812 8.859375 2.96875 8.859375 2.859375 8.84375 C 2.691406 8.816406 2.570312 8.84375 2.3125 8.964844 C 2.210938 9.011719 2.039062 9.085938 1.929688 9.128906 C 1.816406 9.171875 1.71875 9.21875 1.707031 9.222656 C 1.695312 9.234375 1.65625 9.25 1.617188 9.265625 C 1.582031 9.277344 1.480469 9.328125 1.394531 9.378906 C 1.214844 9.480469 0.855469 9.617188 0.605469 9.679688 C 0.4375 9.71875 0.246094 9.78125 0.195312 9.8125 C 0.15625 9.835938 0.265625 9.914062 0.394531 9.960938 C 0.5 10 0.515625 10 3.089844 10 C 5.3125 10 5.683594 9.996094 5.683594 9.972656 C 5.683594 9.960938 5.695312 9.941406 5.707031 9.9375 C 5.722656 9.933594 5.714844 9.917969 5.6875 9.890625 C 5.644531 9.855469 5.644531 9.851562 5.671875 9.785156 C 5.6875 9.75 5.699219 9.714844 5.699219 9.707031 C 5.699219 9.683594 5.625 9.671875 5.613281 9.6875 C 5.605469 9.699219 5.589844 9.699219 5.578125 9.691406 C 5.566406 9.6875 5.566406 9.691406 5.582031 9.710938 C 5.617188 9.75 5.582031 9.765625 5.5 9.746094 C 5.4375 9.730469 5.417969 9.679688 5.464844 9.652344 C 5.484375 9.644531 5.492188 9.625 5.484375 9.597656 C 5.476562 9.570312 5.484375 9.554688 5.5 9.546875 C 5.539062 9.53125 5.535156 9.507812 5.484375 9.460938 C 5.460938 9.4375 5.429688 9.398438 5.417969 9.371094 C 5.394531 9.324219 5.398438 9.3125 5.449219 9.265625 C 5.496094 9.222656 5.507812 9.195312 5.507812 9.136719 C 5.507812 9.089844 5.519531 9.0625 5.535156 9.0625 C 5.578125 9.058594 5.628906 9.046875 5.640625 9.035156 C 5.660156 9.015625 5.695312 8.898438 5.675781 8.910156 C 5.667969 8.914062 5.660156 8.910156 5.667969 8.894531 C 5.671875 8.878906 5.695312 8.859375 5.714844 8.847656 C 5.738281 8.839844 5.753906 8.824219 5.746094 8.816406 C 5.738281 8.8125 5.746094 8.804688 5.765625 8.804688 C 5.78125 8.804688 5.804688 8.789062 5.816406 8.769531 C 5.828125 8.75 5.832031 8.730469 5.828125 8.730469 C 5.804688 8.730469 5.941406 8.601562 5.972656 8.59375 C 5.992188 8.585938 6.007812 8.570312 6.007812 8.554688 C 6.007812 8.539062 6.035156 8.515625 6.066406 8.503906 C 6.101562 8.496094 6.125 8.476562 6.125 8.472656 C 6.125 8.464844 6.15625 8.464844 6.199219 8.46875 C 6.257812 8.472656 6.277344 8.46875 6.285156 8.445312 C 6.292969 8.425781 6.289062 8.40625 6.277344 8.402344 C 6.265625 8.394531 6.273438 8.375 6.296875 8.355469 C 6.324219 8.332031 6.34375 8.328125 6.375 8.34375 C 6.394531 8.355469 6.425781 8.363281 6.441406 8.363281 C 6.46875 8.363281 6.632812 8.296875 6.835938 8.199219 C 6.851562 8.191406 6.867188 8.164062 6.871094 8.136719 C 6.878906 8.085938 6.90625 8.070312 6.917969 8.109375 C 6.933594 8.144531 6.964844 8.113281 6.976562 8.050781 C 6.988281 8.011719 6.996094 8 7.023438 8.007812 C 7.046875 8.019531 7.050781 8.011719 7.042969 7.980469 C 7.03125 7.953125 7.042969 7.9375 7.082031 7.910156 C 7.109375 7.890625 7.144531 7.867188 7.152344 7.855469 C 7.160156 7.84375 7.21875 7.78125 7.28125 7.71875 C 7.34375 7.652344 7.394531 7.59375 7.394531 7.589844 C 7.394531 7.578125 7.433594 7.535156 7.484375 7.488281 C 7.53125 7.441406 7.570312 7.394531 7.570312 7.378906 C 7.570312 7.367188 7.582031 7.351562 7.59375 7.347656 C 7.605469 7.34375 7.613281 7.335938 7.605469 7.328125 C 7.589844 7.3125 7.488281 7.363281 7.433594 7.417969 C 7.410156 7.441406 7.378906 7.464844 7.363281 7.464844 C 7.351562 7.464844 7.324219 7.492188 7.300781 7.523438 C 7.203125 7.671875 6.804688 7.941406 6.679688 7.941406 C 6.664062 7.941406 6.640625 7.949219 6.636719 7.960938 C 6.628906 7.96875 6.605469 7.976562 6.582031 7.976562 C 6.535156 7.976562 6.402344 7.9375 6.382812 7.917969 C 6.375 7.910156 6.347656 7.90625 6.324219 7.90625 C 6.273438 7.90625 6.066406 7.855469 6.050781 7.839844 C 6.042969 7.832031 6.039062 7.820312 6.039062 7.808594 C 6.039062 7.785156 5.996094 7.761719 5.933594 7.75 C 5.859375 7.734375 5.800781 7.585938 5.84375 7.523438 C 5.859375 7.503906 5.875 7.453125 5.882812 7.40625 C 5.890625 7.359375 5.902344 7.3125 5.910156 7.304688 C 5.929688 7.277344 6.109375 7.242188 6.25 7.242188 L 6.371094 7.242188 L 6.394531 7.175781 C 6.414062 7.121094 6.410156 7.105469 6.382812 7.074219 C 6.367188 7.058594 6.339844 7.039062 6.324219 7.039062 C 6.308594 7.039062 6.289062 7.019531 6.277344 6.988281 C 6.25 6.921875 6.054688 6.800781 5.96875 6.800781 C 5.902344 6.800781 5.835938 6.765625 5.835938 6.734375 C 5.835938 6.722656 5.800781 6.683594 5.757812 6.640625 C 5.714844 6.597656 5.683594 6.554688 5.691406 6.546875 C 5.703125 6.527344 5.871094 6.496094 5.902344 6.507812 C 5.914062 6.511719 6.089844 6.515625 6.289062 6.515625 C 6.59375 6.519531 6.683594 6.527344 6.828125 6.5625 C 6.972656 6.59375 7.027344 6.601562 7.1875 6.589844 C 7.289062 6.582031 7.382812 6.570312 7.398438 6.5625 C 7.414062 6.550781 7.414062 6.542969 7.402344 6.542969 C 7.390625 6.542969 7.363281 6.515625 7.339844 6.480469 C 7.304688 6.417969 7.296875 6.414062 7.191406 6.414062 C 7.128906 6.414062 7.035156 6.40625 6.980469 6.390625 C 6.925781 6.375 6.816406 6.371094 6.714844 6.375 C 6.511719 6.378906 6.433594 6.351562 6.433594 6.269531 C 6.433594 6.234375 6.445312 6.214844 6.472656 6.207031 C 6.527344 6.191406 6.519531 6.15625 6.457031 6.15625 C 6.425781 6.15625 6.378906 6.148438 6.347656 6.132812 L 6.292969 6.109375 L 6.394531 6.082031 C 6.453125 6.0625 6.542969 6.042969 6.597656 6.035156 C 6.6875 6.027344 6.726562 6 6.839844 5.894531 C 6.890625 5.84375 6.886719 5.78125 6.832031 5.765625 C 6.746094 5.742188 6.613281 5.753906 6.542969 5.789062 C 6.503906 5.8125 6.460938 5.828125 6.445312 5.828125 C 6.410156 5.828125 6.316406 5.78125 6.316406 5.765625 C 6.316406 5.757812 6.304688 5.753906 6.285156 5.753906 C 6.265625 5.753906 6.257812 5.738281 6.261719 5.703125 C 6.269531 5.636719 6.195312 5.488281 6.132812 5.449219 C 6.089844 5.425781 6.078125 5.425781 5.996094 5.449219 C 5.875 5.492188 5.839844 5.484375 5.726562 5.414062 C 5.617188 5.34375 5.59375 5.304688 5.613281 5.210938 C 5.628906 5.132812 5.707031 5.085938 5.832031 5.085938 C 5.894531 5.082031 5.921875 5.09375 5.96875 5.136719 C 6.023438 5.1875 6.023438 5.1875 6.046875 5.152344 C 6.058594 5.128906 6.066406 5.074219 6.066406 5.03125 C 6.066406 4.933594 6.027344 4.902344 5.929688 4.921875 C 5.839844 4.9375 5.667969 5.011719 5.59375 5.0625 C 5.5625 5.085938 5.492188 5.125 5.433594 5.15625 C 5.378906 5.183594 5.320312 5.214844 5.308594 5.222656 C 5.199219 5.308594 5.15625 5.328125 5.074219 5.355469 C 5.023438 5.371094 4.945312 5.390625 4.902344 5.398438 C 4.828125 5.40625 4.824219 5.40625 4.695312 5.273438 C 4.535156 5.105469 4.503906 5.074219 4.519531 5.074219 C 4.527344 5.074219 4.519531 5.0625 4.507812 5.046875 C 4.46875 5 4.535156 4.6875 4.582031 4.6875 C 4.589844 4.6875 4.625 4.652344 4.660156 4.605469 C 4.699219 4.558594 4.734375 4.523438 4.746094 4.523438 C 4.757812 4.523438 4.792969 4.507812 4.824219 4.492188 C 4.855469 4.476562 4.917969 4.460938 4.960938 4.460938 C 5.039062 4.453125 5.449219 4.558594 5.554688 4.605469 C 5.582031 4.621094 5.644531 4.632812 5.691406 4.632812 C 5.738281 4.632812 5.78125 4.640625 5.785156 4.648438 C 5.796875 4.664062 5.84375 4.65625 5.972656 4.621094 C 6.046875 4.597656 6.351562 4.398438 6.390625 4.34375 C 6.40625 4.316406 6.46875 4.25 6.523438 4.199219 C 6.617188 4.113281 6.625 4.101562 6.628906 4.011719 C 6.632812 3.914062 6.605469 3.859375 6.554688 3.859375 C 6.539062 3.859375 6.527344 3.84375 6.527344 3.824219 C 6.527344 3.796875 6.515625 3.785156 6.46875 3.78125 C 6.414062 3.78125 6.394531 3.765625 6.363281 3.699219 C 6.300781 3.585938 6.285156 3.570312 6.207031 3.570312 C 6.125 3.566406 5.988281 3.519531 5.988281 3.492188 C 5.988281 3.480469 5.972656 3.472656 5.949219 3.472656 C 5.875 3.472656 5.863281 3.453125 5.863281 3.292969 C 5.859375 3.160156 5.851562 3.132812 5.808594 3.074219 C 5.78125 3.035156 5.757812 2.992188 5.757812 2.972656 C 5.757812 2.933594 5.855469 2.832031 5.898438 2.832031 C 5.917969 2.832031 5.960938 2.816406 5.988281 2.804688 C 6.023438 2.785156 6.054688 2.773438 6.0625 2.773438 C 6.070312 2.773438 6.089844 2.765625 6.101562 2.761719 C 6.113281 2.757812 6.128906 2.757812 6.136719 2.761719 C 6.144531 2.769531 6.179688 2.761719 6.214844 2.75 C 6.25 2.734375 6.28125 2.730469 6.289062 2.738281 C 6.292969 2.75 6.320312 2.75 6.347656 2.738281 C 6.386719 2.726562 6.40625 2.726562 6.445312 2.75 C 6.484375 2.777344 6.503906 2.777344 6.539062 2.757812 C 6.609375 2.730469 6.621094 2.734375 6.628906 2.785156 L 6.636719 2.832031 L 6.679688 2.792969 C 6.71875 2.757812 6.730469 2.757812 6.742188 2.777344 C 6.757812 2.800781 6.769531 2.796875 6.796875 2.765625 C 6.8125 2.746094 6.847656 2.726562 6.875 2.722656 C 6.902344 2.722656 6.949219 2.691406 6.984375 2.652344 C 7.058594 2.570312 7.082031 2.59375 7.054688 2.71875 C 7.042969 2.757812 7.039062 2.796875 7.046875 2.804688 C 7.066406 2.824219 7.085938 2.8125 7.085938 2.777344 C 7.085938 2.757812 7.109375 2.703125 7.136719 2.65625 C 7.164062 2.605469 7.183594 2.558594 7.183594 2.542969 C 7.183594 2.507812 7.242188 2.488281 7.261719 2.519531 C 7.28125 2.550781 7.320312 2.523438 7.320312 2.472656 C 7.320312 2.390625 7.355469 2.335938 7.40625 2.335938 C 7.433594 2.335938 7.453125 2.324219 7.453125 2.308594 C 7.453125 2.261719 7.496094 2.257812 7.53125 2.300781 L 7.574219 2.34375 L 7.558594 2.296875 C 7.546875 2.25 7.550781 2.25 7.609375 2.257812 C 7.640625 2.261719 7.6875 2.253906 7.710938 2.242188 C 7.75 2.222656 7.769531 2.226562 7.8125 2.25 C 7.847656 2.265625 7.898438 2.277344 7.925781 2.273438 C 7.96875 2.269531 7.984375 2.28125 8.023438 2.347656 C 8.046875 2.390625 8.09375 2.460938 8.132812 2.503906 C 8.207031 2.59375 8.300781 2.730469 8.300781 2.75 C 8.300781 2.757812 8.332031 2.796875 8.367188 2.832031 C 8.589844 3.039062 8.703125 3.234375 8.753906 3.492188 C 8.769531 3.578125 8.800781 3.710938 8.820312 3.785156 C 8.890625 4.050781 8.886719 4.207031 8.800781 4.765625 C 8.777344 4.921875 8.777344 5 8.800781 5 C 8.8125 5 8.828125 4.96875 8.839844 4.929688 C 8.847656 4.894531 8.867188 4.824219 8.878906 4.78125 C 8.90625 4.683594 8.960938 4.574219 9 4.542969 C 9.015625 4.53125 9.039062 4.480469 9.050781 4.433594 C 9.0625 4.386719 9.085938 4.320312 9.101562 4.292969 C 9.132812 4.222656 9.195312 4.011719 9.222656 3.886719 C 9.234375 3.835938 9.261719 3.71875 9.285156 3.628906 C 9.414062 3.0625 9.410156 3.085938 9.378906 2.957031 C 9.273438 2.507812 9.269531 2.492188 9.140625 2.234375 C 9.105469 2.160156 9.0625 2.074219 9.050781 2.039062 C 8.992188 1.890625 8.8125 1.648438 8.707031 1.566406 C 8.664062 1.53125 8.628906 1.496094 8.628906 1.480469 C 8.628906 1.445312 8.53125 1.367188 8.429688 1.324219 C 8.347656 1.289062 8.335938 1.285156 8.308594 1.3125 C 8.261719 1.359375 8.203125 1.339844 8.164062 1.273438 L 8.128906 1.210938 L 8.179688 1.191406 C 8.207031 1.183594 8.25 1.179688 8.273438 1.183594 C 8.324219 1.195312 8.378906 1.179688 8.378906 1.15625 C 8.378906 1.148438 8.359375 1.140625 8.335938 1.140625 C 8.316406 1.140625 8.300781 1.128906 8.304688 1.117188 C 8.316406 1.09375 8.203125 1 8.128906 0.96875 C 8.101562 0.957031 8.039062 0.917969 7.988281 0.875 C 7.90625 0.8125 7.695312 0.71875 7.636719 0.71875 C 7.625 0.71875 7.585938 0.699219 7.546875 0.675781 C 7.460938 0.617188 7.238281 0.550781 7.136719 0.550781 C 7.089844 0.550781 7.019531 0.539062 6.980469 0.527344 C 6.894531 0.5 6.695312 0.480469 6.578125 0.492188 Z M 5.414062 5.414062 C 5.414062 5.457031 5.316406 5.628906 5.261719 5.6875 C 5.160156 5.789062 5.011719 5.828125 4.960938 5.773438 C 4.929688 5.738281 4.929688 5.734375 4.957031 5.691406 C 4.972656 5.667969 5.035156 5.625 5.089844 5.601562 C 5.175781 5.5625 5.195312 5.546875 5.207031 5.5 C 5.214844 5.457031 5.234375 5.433594 5.28125 5.414062 C 5.363281 5.378906 5.414062 5.378906 5.414062 5.414062 Z M 5.414062 5.414062 "/>
<path style=" stroke:none;fill-rule:nonzero;fill:rgb(0%,0%,0%);fill-opacity:1;" d="M 7.203125 3.875 C 7.160156 3.878906 7.113281 3.902344 7.074219 3.9375 C 7.015625 3.992188 7.007812 4.003906 7.019531 4.070312 C 7.03125 4.148438 6.992188 4.214844 6.945312 4.199219 C 6.910156 4.1875 6.886719 4.226562 6.910156 4.25 C 6.921875 4.261719 6.925781 4.324219 6.921875 4.40625 C 6.910156 4.535156 6.914062 4.554688 6.953125 4.601562 C 6.996094 4.652344 7.210938 4.796875 7.242188 4.796875 C 7.253906 4.796875 7.296875 4.8125 7.339844 4.835938 C 7.378906 4.855469 7.445312 4.871094 7.484375 4.871094 C 7.519531 4.871094 7.570312 4.878906 7.589844 4.890625 C 7.632812 4.910156 7.757812 4.917969 7.777344 4.902344 C 7.78125 4.894531 7.777344 4.871094 7.765625 4.84375 C 7.75 4.808594 7.753906 4.792969 7.78125 4.757812 C 7.808594 4.730469 7.8125 4.710938 7.800781 4.699219 C 7.765625 4.664062 7.78125 4.65625 7.882812 4.664062 C 7.941406 4.671875 8.011719 4.691406 8.050781 4.71875 C 8.160156 4.785156 8.398438 4.765625 8.398438 4.6875 C 8.398438 4.617188 8.332031 4.527344 8.265625 4.496094 C 8.179688 4.460938 8.027344 4.324219 8.042969 4.304688 C 8.046875 4.292969 8.078125 4.28125 8.113281 4.273438 C 8.148438 4.265625 8.199219 4.25 8.226562 4.242188 L 8.28125 4.21875 L 8.238281 4.179688 C 8.203125 4.140625 8.203125 4.136719 8.230469 4.136719 C 8.289062 4.136719 8.265625 4.105469 8.183594 4.074219 C 8.136719 4.054688 8.082031 4.035156 8.058594 4.027344 C 8.039062 4.015625 7.984375 4.011719 7.933594 4.011719 C 7.886719 4.011719 7.8125 3.996094 7.761719 3.972656 C 7.714844 3.953125 7.640625 3.933594 7.597656 3.925781 C 7.554688 3.917969 7.496094 3.90625 7.464844 3.898438 C 7.378906 3.875 7.28125 3.867188 7.203125 3.875 Z M 7.203125 3.875 "/>
<path style=" stroke:none;fill-rule:nonzero;fill:rgb(0%,0%,0%);fill-opacity:1;" d="M 7.222656 5.652344 C 7.222656 5.679688 7.320312 5.925781 7.359375 5.996094 C 7.367188 6.015625 7.375 6.035156 7.375 6.046875 C 7.375 6.058594 7.417969 6.121094 7.472656 6.183594 C 7.519531 6.246094 7.574219 6.328125 7.589844 6.367188 C 7.636719 6.488281 7.710938 6.398438 7.695312 6.238281 C 7.683594 6.136719 7.660156 6.097656 7.453125 5.871094 C 7.40625 5.816406 7.351562 5.742188 7.328125 5.703125 C 7.285156 5.628906 7.222656 5.597656 7.222656 5.652344 Z M 7.222656 5.652344 "/>
<path style=" stroke:none;fill-rule:nonzero;fill:rgb(0%,0%,0%);fill-opacity:1;" d="M 8.472656 8.105469 C 8.375 8.15625 8.304688 8.242188 8.292969 8.324219 C 8.285156 8.359375 8.277344 8.644531 8.277344 8.953125 C 8.273438 9.5625 8.273438 9.558594 8.164062 9.582031 C 8.121094 9.59375 8.109375 9.589844 8.097656 9.558594 C 8.082031 9.511719 8.042969 9.539062 8.023438 9.609375 C 8.007812 9.667969 7.875 9.855469 7.816406 9.902344 C 7.789062 9.921875 7.761719 9.949219 7.746094 9.96875 C 7.71875 10 7.777344 10 8.859375 10 L 9.996094 10 L 9.996094 8.070312 L 9.269531 8.070312 C 8.589844 8.070312 8.539062 8.074219 8.472656 8.105469 Z M 8.472656 8.105469 "/>
</g>
</svg>
